Patient4_TMGait_0pt4_02_right_16_GRF.mot
version=1
nRows=71
nColumns=19
inDegrees=no
endheader
time	F1x	F1y	F1z	M1x	M1y	M1z	F2x	F2y	F2z	M2x	M2y	M2z	EC1x	EC1y	EC1z	EC2x	EC2y	EC2z
20.66	-3.9002	759.7133	52.2294	-260.7212	-57.8409	823.4137	-1.8109	-2.3528	-0.0024293	-0.08098	0.14475	-5.027	-0.0592	0.0182	-0.0073	-0.0462	0.0165	0.9585
20.6736	-1.5557	756.1563	54.1019	-259.2937	-57.9702	818.2183	-1.218	-1.075	-0.06331	0.14937	0.21522	-2.7296	-0.0592	0.0182	-0.0073	-0.0462	0.0165	0.9585
20.6871	0.82441	752.8617	55.5554	-257.9546	-57.6975	812.8063	-0.76037	-0.015999	-0.10848	0.34351	0.28421	-0.78029	-0.0592	0.0182	-0.0073	-0.0462	0.0165	0.9585
20.7007	3.1139	750.3213	56.5614	-256.8804	-57.0863	807.7593	-0.44397	0.78895	-0.13897	0.49503	0.34772	0.73019	-0.0592	0.0182	-0.0073	-0.0462	0.0165	0.9585
20.7143	5.2638	748.9598	57.1385	-256.2222	-56.1923	803.6125	-0.25143	1.3583	-0.15129	0.60671	0.39751	1.8041	-0.0592	0.0182	-0.0073	-0.0462	0.0165	0.9585
20.7279	7.277	749.039	57.3787	-256.0743	-55.0994	800.7268	-0.15559	1.7296	-0.15616	0.68175	0.43676	2.4876	-0.0592	0.0182	-0.0073	-0.0462	0.0165	0.9585
20.7414	9.2011	750.6419	57.3552	-256.4671	-53.852	799.2567	-0.14104	1.9301	-0.1486	0.71887	0.46072	2.8335	-0.0592	0.0182	-0.0073	-0.0462	0.0165	0.9585
20.755	11.0794	753.658	57.1624	-257.3605	-52.5119	799.1542	-0.19613	1.9629	-0.13523	0.7096	0.47835	2.8842	-0.0592	0.0182	-0.0073	-0.0462	0.0165	0.9585
20.7686	12.9415	757.8197	56.8672	-258.6537	-51.1184	800.2055	-0.31063	1.8118	-0.12093	0.64147	0.49689	2.6551	-0.0592	0.0182	-0.0073	-0.0462	0.0165	0.9585
20.7821	14.785	762.7623	56.5254	-260.2035	-49.7127	802.0952	-0.47399	1.4305	-0.11848	0.4921	0.53175	2.1211	-0.0592	0.0182	-0.0073	-0.0462	0.0165	0.9585
20.7957	16.5854	768.0382	56.1802	-261.8326	-48.3374	804.4125	-0.67528	0.75088	-0.12524	0.23131	0.58269	1.2291	-0.0592	0.0182	-0.0073	-0.0462	0.0165	0.9585
20.8093	18.3128	773.0786	55.8688	-263.3229	-47.0334	806.6216	-0.88594	-0.29536	-0.14052	-0.17143	0.64376	-0.085701	-0.0592	0.0182	-0.0073	-0.0462	0.0165	0.9585
20.8229	19.9426	777.2493	55.6299	-264.4351	-45.8392	808.1162	-1.0531	-1.7475	-0.15817	-0.73671	0.69337	-1.862	-0.0592	0.0182	-0.0073	-0.0462	0.0165	0.9585
20.8364	21.4701	779.8952	55.4915	-264.9232	-44.7846	808.264	-1.1171	-3.5935	-0.16185	-1.4625	0.69034	-4.085	-0.0592	0.0182	-0.0073	-0.0462	0.0165	0.9585
20.85	22.8582	780.3644	55.5005	-264.5435	-43.9327	806.4472	-0.98819	-5.7193	-0.13964	-2.303	0.58145	-6.6302	-0.0592	0.0182	-0.0073	-0.0462	0.0165	0.9585
20.8636	24.0923	778.1406	55.6958	-263.1042	-43.3385	802.1676	-0.53463	-7.8264	-0.072252	-3.1398	0.29517	-9.1488	-0.0592	0.0182	-0.0073	-0.0462	0.0165	0.9585
20.8771	25.1836	773.023	56.1209	-260.5276	-43.052	795.2322	0.39276	-9.3643	0.056568	-3.7524	-0.24491	-10.9789	-0.0592	0.0182	-0.0073	-0.0462	0.0165	0.9585
20.8907	26.2104	765.2013	56.8181	-256.8764	-43.1054	785.8183	1.9449	-9.4542	0.27176	-3.7877	-1.1228	-11.0715	-0.0592	0.0182	-0.0073	-0.0462	0.0165	0.9585
20.9043	27.3064	755.1829	57.8349	-252.3298	-43.5192	774.3964	4.2484	-6.8172	0.57754	-2.7361	-2.3889	-7.9028	-0.0592	0.0182	-0.0073	-0.0462	0.0165	0.9585
20.9179	28.6153	743.6658	59.1824	-247.1438	-44.2709	761.6168	7.3516	0.20937	0.97269	0.065241	-4.0507	0.51132	-0.0592	0.0182	-0.0073	-0.0462	0.0165	0.9585
20.9314	30.2574	731.2929	60.8067	-241.5697	-45.2812	748.0821	11.1192	13.5504	1.4183	5.3859	-6.0002	16.4772	-0.0592	0.0182	-0.0073	-0.0462	0.0165	0.9585
20.945	32.2412	718.3245	62.5581	-235.7444	-46.4079	734.0405	15.1359	35.1383	1.8359	13.9994	-7.9641	42.314	-0.0592	0.0182	-0.0073	-0.0462	0.0165	0.9585
20.9586	34.442	704.4089	64.1536	-229.6143	-47.4149	719.1665	18.5689	66.4021	2.0757	26.4801	-9.422	79.7341	-0.0592	0.0182	-0.0073	-0.0462	0.0165	0.9585
20.9721	36.6081	688.5546	65.1833	-222.9202	-47.9737	702.5236	20.0033	107.4599	1.9199	42.8814	-9.5492	128.8754	-0.0592	0.0182	-0.0073	-0.0462	0.0165	0.9585
20.9857	38.437	669.3863	65.1947	-215.2815	-47.7252	682.7905	17.6196	156.2249	1.0307	62.3736	-7.2438	187.2552	-0.0592	0.0182	-0.0073	-0.0462	0.0165	0.9585
20.9993	39.6607	645.669	63.8028	-206.362	-46.359	658.747	10.9444	208.672	-0.9394	83.304	-1.9165	250.1623	-0.0592	0.0182	-0.0073	-0.0462	0.0165	0.9585
21.0129	40.1328	616.8569	60.854	-196.0383	-43.749	629.8071	1.8038	259.2567	-4.1024	103.4234	5.7664	310.9389	-0.0592	0.0182	-0.0073	-0.0462	0.0165	0.9585
21.0264	39.868	583.2302	56.5098	-184.4351	-40.0215	596.152	-7.0752	302.8674	-8.1904	120.6777	14.3647	363.2406	-0.0592	0.0182	-0.0073	-0.0462	0.0165	0.9585
21.04	38.9951	545.6085	51.2023	-171.8193	-35.527	558.4863	-14.227	336.8489	-12.7595	134.0138	22.7226	403.7902	-0.0592	0.0182	-0.0073	-0.0462	0.0165	0.9585
21.0536	37.6716	505.0709	45.4498	-158.5069	-30.697	517.8006	-19.2531	361.6236	-17.0632	143.6332	29.8377	433.1302	-0.0592	0.0182	-0.0073	-0.0462	0.0165	0.9585
21.0671	36.0213	462.7237	39.7573	-144.801	-25.9661	475.1537	-22.5114	379.6458	-20.7784	150.5452	35.4687	454.317	-0.0592	0.0182	-0.0073	-0.0462	0.0165	0.9585
21.0807	34.1375	419.593	34.43	-130.9771	-21.6026	431.5537	-24.5966	394.4282	-23.6997	156.1732	39.6531	471.582	-0.0592	0.0182	-0.0073	-0.0462	0.0165	0.9585
21.0943	32.002	376.4634	29.6008	-117.2435	-17.7513	387.795	-26.0393	409.8731	-26.122	162.0655	42.9477	489.5467	-0.0592	0.0182	-0.0073	-0.0462	0.0165	0.9585
21.1079	29.4817	333.859	25.2592	-103.7385	-14.4625	344.4311	-27.2779	429.6583	-28.3639	169.6632	45.934	512.5161	-0.0592	0.0182	-0.0073	-0.0462	0.0165	0.9585
21.1214	26.3782	292.1638	21.3743	-90.5641	-11.7841	301.8902	-28.6815	456.28	-30.9167	179.9268	49.3256	543.3938	-0.0592	0.0182	-0.0073	-0.0462	0.0165	0.9585
21.135	22.5192	251.8519	17.9301	-77.8574	-9.7662	260.6921	-30.4795	490.5667	-34.1457	193.1559	53.6432	583.0941	-0.0592	0.0182	-0.0073	-0.0462	0.0165	0.9585
21.1486	17.8629	213.6011	14.9482	-65.8268	-8.4509	221.5495	-32.7567	531.749	-38.3047	209.0286	59.2055	630.63	-0.0592	0.0182	-0.0073	-0.0462	0.0165	0.9585
21.1621	12.591	178.1931	12.458	-54.717	-7.8129	185.255	-35.479	577.821	-43.3704	226.7533	65.9677	683.5503	-0.0592	0.0182	-0.0073	-0.0462	0.0165	0.9585
21.1757	7.0925	146.2756	10.4468	-44.7341	-7.7171	152.4562	-38.4486	626.0237	-49.06	245.262	73.5232	738.5324	-0.0592	0.0182	-0.0073	-0.0462	0.0165	0.9585
21.1893	1.8312	118.1393	8.8544	-35.9761	-7.9501	123.4464	-41.3643	673.2931	-54.9236	263.377	81.2368	791.9299	-0.0592	0.0182	-0.0073	-0.0462	0.0165	0.9585
21.2029	-2.7832	93.7088	7.5945	-28.4191	-8.2872	98.1575	-43.8859	716.6143	-60.4305	279.9464	88.373	840.2048	-0.0592	0.0182	-0.0073	-0.0462	0.0165	0.9585
21.2164	-6.4586	72.6725	6.5631	-21.957	-8.5231	76.2882	-45.7176	753.4024	-65.1575	293.9764	94.3281	880.4085	-0.0592	0.0182	-0.0073	-0.0462	0.0165	0.9585
21.23	-8.9939	54.6813	5.6429	-16.4702	-8.4779	57.5217	-46.6636	781.7767	-68.8018	304.7361	98.6823	910.4643	-0.0592	0.0182	-0.0073	-0.0462	0.0165	0.9585
21.2436	-10.2131	39.4365	4.7312	-11.8555	-7.9979	41.595	-46.6777	800.7136	-71.304	311.8103	101.335	929.3427	-0.0592	0.0182	-0.0073	-0.0462	0.0165	0.9585
21.2571	-10.0005	26.7502	3.7649	-8.0427	-6.9922	28.3316	-45.8228	810.095	-72.7099	315.125	102.3607	937.0693	-0.0592	0.0182	-0.0073	-0.0462	0.0165	0.9585
21.2707	-8.5269	16.5941	2.7512	-5.01	-5.5293	17.7044	-44.2247	810.6097	-73.1859	314.9156	101.988	934.5818	-0.0592	0.0182	-0.0073	-0.0462	0.0165	0.9585
21.2843	-6.4331	9.081	1.8113	-2.7762	-3.9314	9.8295	-42.0399	803.5656	-72.8582	311.6673	100.4227	923.4889	-0.0592	0.0182	-0.0073	-0.0462	0.0165	0.9585
21.2979	-4.2891	4.0468	1.0498	-1.2828	-2.4857	4.5536	-39.4104	790.6848	-71.91	306.0381	97.928	905.8247	-0.0592	0.0182	-0.0073	-0.0462	0.0165	0.9585
21.3114	-2.4247	1.0635	0.48664	-0.39915	-1.3221	1.4463	-36.4531	774.0372	-70.5354	298.8341	94.7753	883.9556	-0.0592	0.0182	-0.0073	-0.0462	0.0165	0.9585
21.325	-0.95578	-0.39202	0.11337	0.029851	-0.47748	-0.059616	-33.2673	755.8886	-69.0079	290.948	91.3155	860.4165	-0.0592	0.0182	-0.0073	-0.0462	0.0165	0.9585
21.3386	0.08619	-0.8008	-0.11331	0.1481	0.079805	-0.46446	-29.9488	738.4619	-67.5644	283.2732	87.8673	837.654	-0.0592	0.0182	-0.0073	-0.0462	0.0165	0.9585
21.3521	0.76735	-0.57953	-0.22495	0.079008	0.40325	-0.20746	-26.6008	723.7277	-66.3656	276.6248	84.6711	817.8113	-0.0592	0.0182	-0.0073	-0.0462	0.0165	0.9585
21.3657	1.1525	-0.029904	-0.26676	-0.087138	0.56322	0.40427	-23.3067	713.2478	-65.4376	271.6709	81.8144	802.5539	-0.0592	0.0182	-0.0073	-0.0462	0.0165	0.9585
21.3793	1.3145	0.63655	-0.25782	-0.28552	0.60389	1.1411	-20.1065	708.0008	-64.7333	268.8545	79.283	792.8804	-0.0592	0.0182	-0.0073	-0.0462	0.0165	0.9585
21.3929	1.3315	1.2681	-0.227	-0.47159	0.57757	1.8255	-17.003	708.2895	-64.1726	268.3463	77.0044	789.0425	-0.0592	0.0182	-0.0073	-0.0462	0.0165	0.9585
21.4064	1.2382	1.7675	-0.17962	-0.61634	0.50224	2.366	-13.9526	713.7534	-63.6707	270.0418	74.8754	790.5701	-0.0592	0.0182	-0.0073	-0.0462	0.0165	0.9585
21.42	1.0884	2.0556	-0.13022	-0.69615	0.40493	2.6621	-10.8869	723.4514	-63.1585	273.5891	72.7879	796.3724	-0.0592	0.0182	-0.0073	-0.0462	0.0165	0.9585
21.4336	0.89218	2.0755	-0.069865	-0.69104	0.2811	2.6541	-7.7406	735.9801	-62.597	278.4374	70.6571	804.8902	-0.0592	0.0182	-0.0073	-0.0462	0.0165	0.9585
21.4471	0.67749	1.7602	-0.0061867	-0.57844	0.14713	2.2538	-4.4517	749.6218	-61.9769	283.8985	68.432	814.2696	-0.0592	0.0182	-0.0073	-0.0462	0.0165	0.9585
21.4607	0.45813	1.0361	0.063692	-0.33152	0.0065228	1.3695	-0.97832	762.5166	-61.2903	289.2191	66.0716	822.5576	-0.0592	0.0182	-0.0073	-0.0462	0.0165	0.9585
21.4743	0.24551	-0.14709	0.12591	0.069494	-0.12631	-0.060157	2.7231	772.8832	-60.5573	293.672	63.5632	827.9348	-0.0592	0.0182	-0.0073	-0.0462	0.0165	0.9585
21.4879	0.074998	-1.8257	0.16787	0.63679	-0.2251	-2.0888	6.6641	779.2988	-59.808	296.6651	60.9186	829.0159	-0.0592	0.0182	-0.0073	-0.0462	0.0165	0.9585
21.5014	-0.026809	-3.9465	0.16815	1.3534	-0.25172	-4.6485	10.7924	780.8678	-59.1009	297.8109	58.2056	825.005	-0.0592	0.0182	-0.0073	-0.0462	0.0165	0.9585
21.515	0.014962	-6.3131	0.094722	2.1499	-0.14355	-7.5127	14.9929	777.3236	-58.4952	296.9696	55.5285	815.7765	-0.0592	0.0182	-0.0073	-0.0462	0.0165	0.9585
21.5286	0.28897	-8.5062	-0.078952	2.8811	0.16478	-10.1762	19.0975	769.1087	-58.0599	294.2779	53.0333	801.9572	-0.0592	0.0182	-0.0073	-0.0462	0.0165	0.9585
21.5421	0.91634	-9.8018	-0.39776	3.2948	0.76539	-11.7692	22.9589	757.2785	-57.8627	290.1187	50.8675	784.78	-0.0592	0.0182	-0.0073	-0.0462	0.0165	0.9585
21.5557	2.0428	-9.0936	-0.88173	3.0075	1.74	-10.9713	26.4527	743.2882	-57.9737	285.0379	49.1658	765.8577	-0.0592	0.0182	-0.0073	-0.0462	0.0165	0.9585
21.5693	3.7984	-4.8346	-1.5644	1.4892	3.173	-5.9241	29.5032	728.6525	-58.4212	279.6142	47.9996	746.8237	-0.0592	0.0182	-0.0073	-0.0462	0.0165	0.9585
21.5829	6.268	4.8858	-2.434	-1.9133	5.0798	5.672	32.0573	714.5553	-59.1802	274.3049	47.3768	728.929	-0.0592	0.0182	-0.0073	-0.0462	0.0165	0.9585
21.5964	9.4132	22.2116	-3.4353	-7.9303	7.3717	26.3956	34.0596	701.5235	-60.1482	269.3205	47.2224	712.7379	-0.0592	0.0182	-0.0073	-0.0462	0.0165	0.9585
21.61	12.9953	49.1418	-4.4057	-17.2379	9.7609	58.6515	35.4634	689.2561	-61.1398	264.5605	47.3706	697.9634	-0.0592	0.0182	-0.0073	-0.0462	0.0165	0.9585
